# AST/ASF file generated using VICON BodyLanguage
# -----------------------------------------------
:version 1.10
:name VICON
:units
  mass 1.0
  length 0.45
  angle deg
:documentation
   .ast/.asf automatically generated from VICON data using
   VICON BodyBuilder and BodyLanguage model FoxedUp or BRILLIANT.MOD
:root
   order TX TY TZ RX RY RZ
   axis XYZ
   position 0 0 0  
   orientation 0 0 0 
:bonedata
  begin
     id 1 
     name lhipjoint
     direction 0.710188 -0.616876 0.339259 
     length 2.5669 
     axis 0 0 0  XYZ
  end
  begin
     id 2 
     name lfemur
     direction 0.34202 -0.939693 0  
     length 7.12796  
     axis 0 0 20  XYZ
    dof rx ry rz
    limits (-160.0 20.0)
           (-70.0 70.0)
           (-60.0 70.0)
  end
  begin
     id 3 
     name ltibia
     direction 0.34202 -0.939693 0   
     length 7.58108   
     axis 0 0 20   XYZ
    dof rx
    limits (-10.0 170.0)
  end
  begin
     id 4 
     name lfoot
     direction 0.0669471 -0.183936 0.980656   
     length 2.17365   
     axis -90 7.62852e-016 20   XYZ
    dof rx rz
    limits (-45.0 90.0)
           (-70.0 20.0)
  end
  begin
     id 5 
     name ltoes
     direction 1.53508e-011 -4.21705e-011 1   
     length 1.09427   
     axis -90 7.62852e-016 20   XYZ
    dof rx
    limits (-90.0 20.0)
  end
  begin
     id 6 
     name rhipjoint
     direction -0.700191 -0.625589 0.34405   
     length 2.53115  
     axis 0 0 0  XYZ 
  end
  begin
     id 7 
     name rfemur
     direction -0.34202 -0.939693 0   
     length 7.33006   
     axis 0 0 -20   XYZ
    dof rx ry rz
    limits (-160.0 20.0)
           (-70.0 70.0)
           (-70.0 60.0)
  end
  begin
     id 8 
     name rtibia
     direction -0.34202 -0.939693 0   
     length 7.64926   
     axis 0 0 -20   XYZ
    dof rx
    limits (-10.0 170.0)
 end
 begin
     id 9 
     name rfoot
     direction -0.0688927 -0.189281 0.979503   
     length 2.20493  
     axis -90 -7.62852e-016 -20   XYZ
    dof rx rz
    limits (-45.0 90.0)
           (-20.0 70.0)
  end
  begin
     id 10 
     name rtoes
     direction -1.53567e-011 -4.21933e-011 1   
     length 1.10919   
     axis -90 -7.62852e-016 -20   XYZ
    dof rx
    limits (-90.0 20.0)
  end
  begin
     id 11 
     name lowerback
     direction -0.0167868 0.989873 -0.140959   
     length 2.14596   
     axis 0 0 0   XYZ
    dof rx ry rz
    limits (-20.0 45.0)
           (-30.0 30.0)
           (-30.0 30.0)
  end
  begin
     id 12 
     name upperback
     direction 0.0129109 0.998033 0.0613525   
     length 2.10457   
     axis 0 0 0   XYZ
    dof rx ry rz
    limits (-20.0 45.0)
           (-30.0 30.0)
           (-30.0 30.0)
  end
  begin
     id 13 
     name thorax
     direction 0.0177047 0.991119 0.131797   
     length 2.17652   
     axis 0 0 0   XYZ
    dof rx ry rz
    limits (-20.0 45.0)
           (-30.0 30.0)
           (-30.0 30.0)
  end
  begin
     id 14 
     name lowerneck
     direction -0.0336893 0.997548 0.0613464   
     length 1.8912   
     axis 0 0 0   XYZ
    dof rx ry rz
    limits (-20.0 45.0)
           (-30.0 30.0)
           (-30.0 30.0)
  end
  begin
     id 15 
     name upperneck
     direction 0.0435909 0.997179 -0.0611028   
     length 1.8829   
     axis 0 0 0   XYZ
    dof rx ry rz
    limits (-20.0 45.0)
           (-30.0 30.0)
           (-30.0 30.0)
  end
  begin
     id 16
     name head
     direction 0.0175076 0.999444 -0.0283782  
     length 1.93197  
     axis 0 0 0   XYZ
    dof rx ry rz
    limits (-20.0 45.0)
           (-30.0 30.0)
           (-30.0 30.0)
  end
  begin
     id 17 
     name lclavicle
     direction 0.919164 0.389875 0.0559876  
     length 3.60004  
     axis 0 0 0   XYZ
    dof ry rz
    limits (-20.0 10.0)
           (0.0 20.0)
  end
  begin
     id 18 
     name lhumerus
     direction 1 -4.48958e-011 6.89191e-027   
     length 5.43301   
     axis 180 -30 -90   XYZ
    dof rx ry rz
    limits (-60.0 90.0)
           (-90.0 90.0)
           (-90.0 90.0)
  end
  begin
     id 19
     name lradius
     direction 1 -4.4897e-011 3.24727e-027   
     length 3.15936   
     axis 180 -30 -90   XYZ
    dof rx
    limits (-10.0 170.0)
  end
  begin
     id 20
     name lwrist
     direction 1 -4.4897e-011 9.00228e-027   
     length 1.57968   
     axis -6.29373e-015 90 90   XYZ
    dof ry
    limits (-180.0 0.0)
 end
  begin
     id 21 
     name lhand
     direction 1 -4.48968e-011 1.80042e-026   
     length 0.712827   
     axis -1.14882e-014 90 90   XYZ
    dof rx rz
    limits (-90.0 90.0)
           (-45.0 45.0)
  end
  begin
     id 22 
     name lfingers
     direction 1 -4.49019e-011 3.60267e-026   
     length 0.574699   
     axis -2.29769e-014 90 90   XYZ
    dof rx
    limits (0.0 90.0)
  end
  begin
     id 23
     name lthumb
     direction 0.707107 -6.3498e-011 0.707107   
     length 0.825157   
     axis -90 45 5.37419e-014   XYZ
    dof rx rz
    limits (-45.0 45.0)
           (-45.0 45.0)
  end
  begin
     id 24 
     name rclavicle
     direction -0.890334 0.455305 -0.00132111   
     length 3.51494  
     axis 0 0 0   XYZ 
    dof ry rz
    limits (-10.0 20.0)
           (-20.0 0.0)
  end
  begin
     id 25 
     name rhumerus
     direction -1 -4.48967e-011 5.07175e-028  
     length 5.34194   
     axis 180 30 90   XYZ
    dof rx ry rz
    limits (-90.0 60.0)
           (-90.0 90.0)
           (-90.0 90.0)
  end
  begin
     id 26 
     name rradius
     direction -1 -4.48955e-011 3.30467e-027   
     length 3.19351   
     axis 180 30 90   XYZ
    dof rx
    limits (-10.0 170.0)
  end
  begin
     id 27 
     name rwrist
     direction -1 -4.48968e-011 9.00208e-027   
     length 1.59676   
     axis -6.29373e-015 -90 -90   XYZ
    dof ry
    limits (-180.0 0.0)
  end
  begin
     id 28
     name rhand
     direction -1 -4.49e-011 1.80099e-026   
     length 0.743862   
     axis -1.14882e-014 -90 -90   XYZ
    dof rx rz
    limits (-90.0 90.0)
           (-45.0 45.0)
  end
  begin
     id 29
     name rfingers
     direction -1 -4.49009e-011 3.6023e-026   
     length 0.599721   
     axis -2.29769e-014 -90 -90   XYZ
    dof rx
    limits (0.0 90.0)
  end
  begin
     id 30
     name rthumb
     direction -0.707107 -6.35025e-011 0.707107   
     length 0.861083   
     axis -90 -45 -5.37419e-014   XYZ
    dof rx rz
    limits (-45.0 45.0)
           (-45.0 45.0)
  end
:hierarchy
  begin
    root lhipjoint rhipjoint lowerback
    lhipjoint lfemur
    lfemur ltibia
    ltibia lfoot
    lfoot ltoes
    rhipjoint rfemur
    rfemur rtibia
    rtibia rfoot
    rfoot rtoes
    lowerback upperback
    upperback thorax
    thorax lowerneck lclavicle rclavicle
    lowerneck upperneck
    upperneck head
    lclavicle lhumerus
    lhumerus lradius
    lradius lwrist
    lwrist lhand lthumb
    lhand lfingers
    rclavicle rhumerus
    rhumerus rradius
    rradius rwrist
    rwrist rhand rthumb
    rhand rfingers
  end

#!OML:ASF H:\Martial Arts Walks\Project 1\Capture day 1\Session 1\male.ASF
:FULLY-SPECIFIED
:DEGREES
459
root -8.87263 12.0263 -17.6855 -1.52235 77.7642 -10.3574
lowerback 19.7647 -3.26716 -6.2619
upperback -1.47871 -5.20858 4.77404
thorax -11.7514 -1.823 10.5166
lowerneck 7.54828 -15.4425 -15.6257
upperneck -0.139136 -21.9921 18.8995
head 2.61802 -11.2864 7.45279
rclavicle 5.74985e-014 -6.57977e-014
rhumerus -12.1282 -10.2143 -50.0926
rradius 112.275
rwrist -13.4852
rhand -28.8876 -38.973
rfingers 7.12502
rthumb -2.24317 -68.9409
lclavicle 5.74985e-014 -6.57977e-014
lhumerus -16.7598 -58.3003 99.1832
lradius 110.736
lwrist 18.547
lhand -15.2357 8.71944
lfingers 7.12502
lthumb 10.9374 38.4146
rfemur -63.3243 -24.8751 -2.38839
rtibia 84.9291
rfoot -29.5143 17.0887
rtoes -27.5668
lfemur -51.6517 41.597 4.2021
ltibia 97.2149
lfoot -31.9778 12.7333
ltoes -17.4161
460
root -8.87317 11.9972 -17.6625 -1.03032 77.765 -9.96012
lowerback 19.6679 -3.27478 -6.26695
upperback -1.56589 -5.21432 4.80831
thorax -11.7917 -1.81896 10.5582
lowerneck 7.67123 -15.4684 -15.5761
upperneck -0.165133 -22.0241 18.6926
head 2.56542 -11.3062 7.39549
rclavicle 3.26504e-014 -1.51076e-014
rhumerus -12.0984 -10.4802 -49.9794
rradius 112.063
rwrist -13.0307
rhand -29.1279 -38.9368
rfingers 7.12502
rthumb -2.47519 -68.9022
lclavicle 3.26504e-014 -1.51076e-014
lhumerus -16.4842 -58.5686 99.2897
lradius 110.608
lwrist 18.721
lhand -15.5667 9.26064
lfingers 7.12502
lthumb 10.6182 38.9724
rfemur -63.7174 -25.0402 -2.34296
rtibia 85.3631
rfoot -29.6912 17.1416
rtoes -27.6705
lfemur -51.7901 42.0704 4.2718
ltibia 97.3222
lfoot -32.1643 12.2541
ltoes -17.6649
461
root -8.87444 11.9734 -17.6392 -0.467653 77.8722 -9.39106
lowerback 19.6287 -3.31976 -6.28314
upperback -1.61297 -5.28183 4.78243
thorax -11.8099 -1.84862 10.5547
lowerneck 7.60155 -15.4991 -15.5617
upperneck 0.0623155 -22.0762 18.5753
head 2.63622 -11.3229 7.33829
rclavicle -9.39258e-015 6.75868e-015
rhumerus -12.107 -10.7951 -49.9553
rradius 111.914
rwrist -12.6034
rhand -29.1368 -39.152
rfingers 7.12502
rthumb -2.48387 -69.1173
lclavicle -9.39258e-015 6.75868e-015
lhumerus -16.4887 -58.8086 99.3939
lradius 110.54
lwrist 18.7211
lhand -15.9467 9.30155
lfingers 7.12502
lthumb 10.2516 39.0317
rfemur -63.9426 -25.2656 -2.43234
rtibia 85.7755
rfoot -29.748 17.5419
rtoes -26.9933
lfemur -51.8716 42.2101 4.26143
ltibia 97.4096
lfoot -32.2398 12.0958
ltoes -18.0893
462
root -8.87537 11.9453 -17.6187 0.424769 77.9784 -8.53737
lowerback 19.5272 -3.39199 -6.24646
upperback -1.64419 -5.37573 4.71205
thorax -11.7772 -1.90109 10.4659
lowerneck 7.55382 -15.5164 -15.5786
upperneck 0.155163 -22.1054 18.5628
head 2.67643 -11.3332 7.32512
rclavicle 5.08889e-014 4.77083e-015
rhumerus -12.007 -11.1089 -49.9927
rradius 111.713
rwrist -12.2008
rhand -29.1808 -39.4525
rfingers 7.12502
rthumb -2.52628 -69.4173
lclavicle 5.08889e-014 4.77083e-015
lhumerus -16.3035 -59.0159 99.2976
lradius 110.47
lwrist 18.6006
lhand -16.0902 9.34088
lfingers 7.12502
lthumb 10.1131 39.0778
rfemur -64.2531 -25.5816 -2.50301
rtibia 86.1745
rfoot -30.0163 17.2387
rtoes -27.7453
lfemur -52.0702 42.3952 4.13065
ltibia 97.5134
lfoot -32.2779 11.9337
ltoes -18.3162
463
root -8.87639 11.9198 -17.5968 1.33028 78.067 -7.67016
lowerback 19.464 -3.40218 -6.35621
upperback -1.6942 -5.41553 4.70985
thorax -11.7806 -1.91168 10.5348
lowerneck 7.62886 -15.5605 -15.5662
upperneck 0.133628 -22.1651 18.4637
head 2.65479 -11.3656 7.29563
rclavicle 1.66979e-014 -4.81059e-014
rhumerus -11.9667 -11.4151 -49.8917
rradius 111.524
rwrist -11.8971
rhand -29.1961 -39.7988
rfingers 7.12502
rthumb -2.54114 -69.7634
lclavicle 1.66979e-014 -4.81059e-014
lhumerus -16.1364 -59.264 99.3459
lradius 110.416
lwrist 18.3758
lhand -16.5469 9.28447
lfingers 7.12502
lthumb 9.67251 39.0424
rfemur -64.5812 -25.8328 -2.62098
rtibia 86.5559
rfoot -29.8509 17.7043
rtoes -26.8856
lfemur -52.2572 42.6273 4.00206
ltibia 97.5992
lfoot -32.3241 11.7027
ltoes -18.6729
464
root -8.87794 11.9174 -17.5733 2.13145 78.1602 -6.8868
lowerback 19.4223 -3.42158 -6.45288
upperback -1.7465 -5.46824 4.68666
thorax -11.7993 -1.92878 10.5778
lowerneck 7.60018 -15.5753 -15.5922
upperneck 0.242942 -22.1949 18.4496
head 2.69771 -11.3766 7.28422
rclavicle -2.80286e-014 3.10104e-014
rhumerus -11.9973 -11.6723 -49.8373
rradius 111.393
rwrist -11.8099
rhand -29.1208 -40.1248
rfingers 7.12502
rthumb -2.46841 -70.0903
lclavicle -2.80286e-014 3.10104e-014
lhumerus -16.1359 -59.4801 99.4329
lradius 110.363
lwrist 17.9969
lhand -16.7415 9.20017
lfingers 7.12502
lthumb 9.48474 38.9667
rfemur -64.6618 -25.6274 -3.3016
rtibia 86.705
rfoot -23.811 25.0549
rtoes -5.28584
lfemur -52.3087 42.6983 3.85258
ltibia 97.5644
lfoot -32.332 11.6013
ltoes -18.8345
465
root -8.88036 11.8907 -17.5559 3.29346 78.255 -5.7743
lowerback 19.3565 -3.52457 -6.5036
upperback -1.77155 -5.62074 4.65292
thorax -11.7554 -2.00243 10.6006
lowerneck 7.49454 -15.5464 -15.6869
upperneck 0.260464 -22.1539 18.4105
head 2.71848 -11.351 7.27847
rclavicle 4.12478e-014 -1.31198e-014
rhumerus -11.741 -11.8276 -49.8945
rradius 111.25
rwrist -11.9897
rhand -28.9572 -40.6961
rfingers 7.12502
rthumb -2.31041 -70.6633
lclavicle 4.12478e-014 -1.31198e-014
lhumerus -15.8406 -59.4918 99.2292
lradius 110.318
lwrist 17.5414
lhand -16.8281 9.01663
lfingers 7.12502
lthumb 9.40123 38.787
rfemur -64.9678 -25.8894 -3.48409
rtibia 87.0744
rfoot -23.7995 25.1781
rtoes -4.87786
lfemur -52.5758 42.8426 3.59867
ltibia 97.6855
lfoot -32.3244 11.536
ltoes -19.1136
466
root -8.88428 11.8637 -17.5382 4.14163 78.3072 -4.9123
lowerback 19.3987 -3.54081 -6.57817
upperback -1.81727 -5.67085 4.60339
thorax -11.8198 -2.01689 10.6089
lowerneck 7.46206 -15.5615 -15.6978
upperneck 0.334332 -22.1791 18.4033
head 2.75 -11.3604 7.26878
rclavicle 2.75317e-014 -1.59028e-014
rhumerus -11.757 -12.0656 -49.8674
rradius 111.199
rwrist -12.3783
rhand -28.531 -41.2126
rfingers 7.12502
rthumb -1.89875 -71.1839
lclavicle 2.75317e-014 -1.59028e-014
lhumerus -15.8487 -59.6601 99.2482
lradius 110.295
lwrist 17.0653
lhand -16.6982 8.84594
lfingers 7.12502
lthumb 9.52659 38.6106
rfemur -65.2296 -26.0915 -3.60506
rtibia 87.4344
rfoot -24.0177 25.0768
rtoes -5.3712
lfemur -52.7291 42.9637 3.49873
ltibia 97.8175
lfoot -32.3434 11.3318
ltoes -19.0578
467
root -8.88836 11.8355 -17.5221 4.94635 78.316 -4.14311
lowerback 19.3711 -3.4177 -6.56704
upperback -1.86379 -5.52098 4.47796
thorax -11.905 -1.94478 10.4202
lowerneck 7.73512 -15.7167 -15.4012
upperneck 0.043877 -22.3604 18.4155
head 2.62036 -11.4676 7.25178
rclavicle 1.31198e-014 -2.38542e-014
rhumerus -12.1091 -12.6244 -49.6395
rradius 111.151
rwrist -12.8912
rhand -28.4416 -41.5607
rfingers 7.12502
rthumb -1.81241 -71.5327
lclavicle 1.31198e-014 -2.38542e-014
lhumerus -15.8594 -60.2714 99.3775
lradius 110.297
lwrist 16.7147
lhand -16.7887 8.57102
lfingers 7.12502
lthumb 9.43927 38.3396
rfemur -65.5574 -26.2837 -3.69481
rtibia 87.8223
rfoot -24.0581 25.2026
rtoes -5.03705
lfemur -52.9103 43.1519 3.39038
ltibia 97.9761
lfoot -32.3588 11.3349
ltoes -19.1297
468
root -8.89324 11.808 -17.507 6.53781 78.3762 -2.51568
lowerback 19.4042 -3.43701 -6.76393
upperback -1.87482 -5.6085 4.3915
thorax -11.9088 -1.97626 10.4614
lowerneck 7.73685 -15.7262 -15.407
upperneck -0.0767318 -22.3634 18.461
head 2.59146 -11.4719 7.26994
rclavicle 7.84206e-014 -7.55382e-015
rhumerus -12.0442 -12.858 -49.5787
rradius 111.033
rwrist -13.3794
rhand -28.2999 -41.6227
rfingers 7.12502
rthumb -1.67554 -71.5959
lclavicle 7.84206e-014 -7.55382e-015
lhumerus -15.7367 -60.3969 99.303
lradius 110.271
lwrist 16.3493
lhand -16.5742 8.26667
lfingers 7.12502
lthumb 9.64618 38.0258
rfemur -65.7768 -26.5372 -4.03799
rtibia 88.196
rfoot -24.2081 25.3129
rtoes -4.99495
lfemur -53.0468 43.1577 3.09478
ltibia 98.1185
lfoot -32.4232 11.2235
ltoes -19.0788
469
root -8.89926 11.7799 -17.4915 7.3666 78.3461 -1.67768
lowerback 19.4661 -3.40688 -6.88276
upperback -1.87965 -5.60458 4.36176
thorax -11.9433 -1.96453 10.5032
lowerneck 7.67456 -15.7623 -15.396
upperneck -0.148678 -22.3989 18.4993
head 2.58983 -11.4882 7.27194
rclavicle -6.86801e-014 5.56597e-015
rhumerus -12.0558 -13.103 -49.4538
rradius 110.941
rwrist -13.8437
rhand -28.3439 -41.6764
rfingers 7.12502
rthumb -1.71806 -71.6492
lclavicle -6.86801e-014 5.56597e-015
lhumerus -15.6741 -60.5502 99.2818
lradius 110.287
lwrist 16.1341
lhand -16.5338 7.8762
lfingers 7.12502
lthumb 9.68517 37.6335
rfemur -66.0604 -26.6661 -4.16078
rtibia 88.5548
rfoot -24.5484 25.214
rtoes -5.7622
lfemur -53.1191 43.2841 3.03649
ltibia 98.2675
lfoot -32.4752 11.1868
ltoes -19.1953
470
root -8.90591 11.7514 -17.4789 8.23201 78.3287 -0.835231
lowerback 19.5124 -3.44348 -6.82098
upperback -1.90757 -5.66186 4.21323
thorax -12.0109 -1.9962 10.3175
lowerneck 7.64058 -15.7682 -15.3871
upperneck -0.160719 -22.4095 18.695
head 2.61685 -11.4942 7.3231
rclavicle -4.96962e-016 1.82882e-014
rhumerus -12.1426 -13.33 -49.5108
rradius 110.853
rwrist -14.2114
rhand -28.4034 -41.6661
rfingers 7.12502
rthumb -1.77554 -71.6384
lclavicle -4.96962e-016 1.82882e-014
lhumerus -15.7201 -60.7144 99.1362
lradius 110.343
lwrist 15.9973
lhand -16.2116 7.86609
lfingers 7.12502
lthumb 9.99601 37.6087
rfemur -66.3452 -26.8083 -4.29974
rtibia 88.8829
rfoot -24.7524 25.2598
rtoes -6.06765
lfemur -53.2688 43.3669 2.92241
ltibia 98.428
lfoot -32.5395 11.1615
ltoes -19.3637
471
root -8.91231 11.7243 -17.4674 9.10699 78.2808 -0.000326053
lowerback 19.5042 -3.42195 -6.86954
upperback -1.90914 -5.65555 4.13221
thorax -12.0135 -1.99355 10.2491
lowerneck 7.64595 -15.8001 -15.3314
upperneck -0.307722 -22.4366 18.8022
head 2.58462 -11.5119 7.35008
rclavicle 6.95746e-016 1.59028e-015
rhumerus -12.1943 -13.5651 -49.4306
rradius 110.823
rwrist -14.4177
rhand -28.2206 -41.8187
rfingers 7.12502
rthumb -1.59896 -71.7925
lclavicle 6.95746e-016 1.59028e-015
lhumerus -15.6792 -60.9098 99.0557
lradius 110.4
lwrist 15.9706
lhand -16.1325 7.45031
lfingers 7.12502
lthumb 10.0723 37.1893
rfemur -66.6828 -26.9229 -4.43054
rtibia 89.2219
rfoot -24.9254 25.2643
rtoes -6.43871
lfemur -53.4064 43.4771 2.80394
ltibia 98.5879
lfoot -32.6247 11.1227
ltoes -19.4791
